<mxfile host="Electron" modified="2023-04-26T15:10:34.473Z" agent="Mozilla/5.0 (Windows NT 10.0; Win64; x64) AppleWebKit/537.36 (KHTML, like Gecko) draw.io/21.2.1 Chrome/112.0.5615.87 Electron/24.1.2 Safari/537.36" etag="WeJzy-08ZYph_1vz50s2" version="21.2.1" type="device">
  <diagram name="Seite-1" id="dB6R3Xs6jMPGLtSaTfN9">
    <mxGraphModel dx="1098" dy="1188" grid="1" gridSize="10" guides="1" tooltips="1" connect="1" arrows="1" fold="1" page="1" pageScale="1" pageWidth="827" pageHeight="1169" math="0" shadow="0">
      <root>
        <mxCell id="0" />
        <mxCell id="1" parent="0" />
        <mxCell id="0gp8LglunyOPUMX0nEBI-1" value="Beastopia&amp;nbsp;- Main Menu" style="strokeWidth=1;shadow=0;dashed=0;align=center;html=1;shape=mxgraph.mockup.containers.window;align=left;verticalAlign=top;spacingLeft=8;strokeColor2=#008cff;strokeColor3=#c4c4c4;fontColor=#666666;mainText=;fontSize=17;labelBackgroundColor=none;whiteSpace=wrap;" vertex="1" parent="1">
          <mxGeometry x="82" y="50" width="663" height="500" as="geometry" />
        </mxCell>
        <mxCell id="0gp8LglunyOPUMX0nEBI-2" value="" style="verticalLabelPosition=bottom;shadow=0;dashed=0;align=center;html=1;verticalAlign=top;strokeWidth=1;shape=mxgraph.mockup.graphics.simpleIcon;strokeColor=#999999;" vertex="1" parent="1">
          <mxGeometry x="82" y="81" width="663" height="469" as="geometry" />
        </mxCell>
        <mxCell id="0gp8LglunyOPUMX0nEBI-3" value="&lt;p style=&quot;line-height: 20%;&quot;&gt;&lt;br&gt;&lt;/p&gt;" style="strokeWidth=1;shadow=0;dashed=0;align=center;html=1;shape=mxgraph.mockup.text.textBox;fontColor=#666666;align=left;fontSize=17;spacingLeft=4;spacingTop=-3;whiteSpace=wrap;strokeColor=#666666;mainText=" vertex="1" parent="1">
          <mxGeometry x="483" y="160.25" width="210" height="320.25" as="geometry" />
        </mxCell>
        <mxCell id="0gp8LglunyOPUMX0nEBI-4" value="" style="verticalLabelPosition=bottom;shadow=0;dashed=0;align=center;html=1;verticalAlign=top;strokeWidth=1;shape=mxgraph.mockup.navigation.scrollBar;strokeColor=#999999;barPos=100;fillColor2=#99ddff;strokeColor2=none;direction=north;" vertex="1" parent="1">
          <mxGeometry x="673" y="190" width="20" height="250" as="geometry" />
        </mxCell>
        <mxCell id="0gp8LglunyOPUMX0nEBI-5" value="&lt;span style=&quot;font-size: 14px;&quot;&gt;Alice&lt;/span&gt;" style="strokeWidth=1;shadow=0;dashed=0;align=center;html=1;shape=mxgraph.mockup.forms.searchBox;strokeColor=#999999;mainText=;strokeColor2=#008cff;fontColor=#666666;fontSize=17;align=left;spacingLeft=3;whiteSpace=wrap;" vertex="1" parent="1">
          <mxGeometry x="483" y="160.75" width="209" height="30" as="geometry" />
        </mxCell>
        <mxCell id="0gp8LglunyOPUMX0nEBI-6" value="" style="strokeWidth=1;shadow=0;dashed=0;align=center;html=1;shape=mxgraph.mockup.text.textBox;fontColor=#666666;align=left;fontSize=17;spacingLeft=4;spacingTop=-3;whiteSpace=wrap;strokeColor=#666666;mainText=" vertex="1" parent="1">
          <mxGeometry x="483" y="130.25" width="210" height="30" as="geometry" />
        </mxCell>
        <mxCell id="0gp8LglunyOPUMX0nEBI-7" value="" style="rounded=0;whiteSpace=wrap;html=1;strokeColor=#666666;" vertex="1" parent="1">
          <mxGeometry x="483" y="190.75" width="190" height="60" as="geometry" />
        </mxCell>
        <mxCell id="0gp8LglunyOPUMX0nEBI-8" value="&lt;p style=&quot;line-height: 120%;&quot;&gt;&lt;font style=&quot;font-size: 14px;&quot;&gt;Alice&lt;/font&gt;&lt;/p&gt;" style="text;html=1;strokeColor=none;fillColor=none;align=left;verticalAlign=middle;whiteSpace=wrap;rounded=0;" vertex="1" parent="1">
          <mxGeometry x="548" y="199.75" width="114" height="12.5" as="geometry" />
        </mxCell>
        <mxCell id="0gp8LglunyOPUMX0nEBI-9" value="" style="html=1;verticalLabelPosition=bottom;align=center;labelBackgroundColor=#ffffff;verticalAlign=top;strokeWidth=2;shadow=0;dashed=0;shape=mxgraph.ios7.icons.mail;fillColor=#fff2cc;strokeColor=#d6b656;" vertex="1" parent="1">
          <mxGeometry x="584" y="223.25" width="20" height="15" as="geometry" />
        </mxCell>
        <mxCell id="0gp8LglunyOPUMX0nEBI-10" value="" style="verticalLabelPosition=bottom;shadow=0;dashed=0;align=center;html=1;verticalAlign=top;strokeWidth=1;shape=mxgraph.mockup.containers.userFemale;strokeColor=#666666;strokeColor2=#008cff;" vertex="1" parent="1">
          <mxGeometry x="491" y="199.75" width="44" height="42" as="geometry" />
        </mxCell>
        <mxCell id="0gp8LglunyOPUMX0nEBI-11" value="" style="ellipse;whiteSpace=wrap;html=1;aspect=fixed;fillColor=#e51400;fontColor=#ffffff;strokeColor=#B20000;" vertex="1" parent="1">
          <mxGeometry x="525" y="231.75" width="10" height="10" as="geometry" />
        </mxCell>
        <mxCell id="0gp8LglunyOPUMX0nEBI-12" value="" style="html=1;verticalLabelPosition=bottom;align=center;labelBackgroundColor=#ffffff;verticalAlign=top;strokeWidth=2;shadow=0;dashed=0;shape=mxgraph.ios7.icons.add;fillColor=#d5e8d4;strokeColor=#82b366;" vertex="1" parent="1">
          <mxGeometry x="549" y="220.75" width="20" height="20" as="geometry" />
        </mxCell>
        <mxCell id="0gp8LglunyOPUMX0nEBI-13" value="" style="rounded=1;whiteSpace=wrap;html=1;arcSize=7;strokeColor=#666666;" vertex="1" parent="1">
          <mxGeometry x="134" y="130.75" width="288" height="349.25" as="geometry" />
        </mxCell>
        <mxCell id="0gp8LglunyOPUMX0nEBI-14" value="" style="verticalLabelPosition=bottom;shadow=0;dashed=0;align=center;html=1;verticalAlign=top;strokeWidth=1;shape=mxgraph.mockup.containers.userMale;strokeColor=#666666;strokeColor2=#008cff;" vertex="1" parent="1">
          <mxGeometry x="162" y="190" width="50" height="49.25" as="geometry" />
        </mxCell>
        <mxCell id="0gp8LglunyOPUMX0nEBI-15" value="&lt;p style=&quot;line-height: 120%;&quot;&gt;&lt;font style=&quot;font-size: 14px;&quot;&gt;MyUsername&lt;/font&gt;&lt;/p&gt;" style="text;html=1;strokeColor=none;fillColor=none;align=left;verticalAlign=middle;whiteSpace=wrap;rounded=0;" vertex="1" parent="1">
          <mxGeometry x="229" y="190" width="114" height="12.5" as="geometry" />
        </mxCell>
        <mxCell id="0gp8LglunyOPUMX0nEBI-16" value="" style="html=1;verticalLabelPosition=bottom;align=center;labelBackgroundColor=#ffffff;verticalAlign=top;strokeWidth=2;strokeColor=#0080F0;shadow=0;dashed=0;shape=mxgraph.ios7.icons.edit;" vertex="1" parent="1">
          <mxGeometry x="232" y="218.85000000000002" width="20" height="19.4" as="geometry" />
        </mxCell>
        <mxCell id="0gp8LglunyOPUMX0nEBI-17" value="" style="rounded=0;whiteSpace=wrap;html=1;strokeColor=#666666;" vertex="1" parent="1">
          <mxGeometry x="162" y="320" width="240" height="140" as="geometry" />
        </mxCell>
        <mxCell id="0gp8LglunyOPUMX0nEBI-18" value="" style="rounded=1;whiteSpace=wrap;html=1;strokeColor=#666666;" vertex="1" parent="1">
          <mxGeometry x="189" y="332" width="170" height="30.25" as="geometry" />
        </mxCell>
        <mxCell id="0gp8LglunyOPUMX0nEBI-19" value="" style="rounded=1;whiteSpace=wrap;html=1;strokeColor=#666666;" vertex="1" parent="1">
          <mxGeometry x="189" y="374" width="170" height="30.25" as="geometry" />
        </mxCell>
        <mxCell id="0gp8LglunyOPUMX0nEBI-20" value="Example region" style="text;html=1;strokeColor=none;fillColor=none;align=center;verticalAlign=middle;whiteSpace=wrap;rounded=0;" vertex="1" parent="1">
          <mxGeometry x="219" y="332" width="110" height="30" as="geometry" />
        </mxCell>
        <mxCell id="0gp8LglunyOPUMX0nEBI-21" value="Example region" style="text;html=1;strokeColor=none;fillColor=none;align=center;verticalAlign=middle;whiteSpace=wrap;rounded=0;" vertex="1" parent="1">
          <mxGeometry x="219" y="374" width="110" height="30" as="geometry" />
        </mxCell>
        <mxCell id="0gp8LglunyOPUMX0nEBI-22" value="Choose a region" style="text;html=1;strokeColor=none;fillColor=none;align=center;verticalAlign=middle;whiteSpace=wrap;rounded=0;fontSize=16;" vertex="1" parent="1">
          <mxGeometry x="212" y="280" width="144" height="30" as="geometry" />
        </mxCell>
        <mxCell id="0gp8LglunyOPUMX0nEBI-23" value="" style="verticalLabelPosition=bottom;shadow=0;dashed=0;align=center;html=1;verticalAlign=top;strokeWidth=1;shape=mxgraph.mockup.navigation.scrollBar;strokeColor=#999999;barPos=100;fillColor2=#99ddff;strokeColor2=none;direction=north;" vertex="1" parent="1">
          <mxGeometry x="382" y="320" width="20" height="140" as="geometry" />
        </mxCell>
        <mxCell id="0gp8LglunyOPUMX0nEBI-24" value="" style="strokeWidth=1;shadow=0;dashed=0;align=center;html=1;shape=mxgraph.mockup.text.textBox;fontColor=#666666;align=left;fontSize=17;spacingLeft=4;spacingTop=-3;whiteSpace=wrap;strokeColor=#666666;mainText=" vertex="1" parent="1">
          <mxGeometry x="483" y="441" width="210" height="40" as="geometry" />
        </mxCell>
        <mxCell id="0gp8LglunyOPUMX0nEBI-25" value="Friend List" style="text;html=1;strokeColor=none;fillColor=none;align=center;verticalAlign=middle;whiteSpace=wrap;rounded=0;fontSize=16;" vertex="1" parent="1">
          <mxGeometry x="515.5" y="130.75" width="144" height="30" as="geometry" />
        </mxCell>
        <mxCell id="0gp8LglunyOPUMX0nEBI-26" value="Show Chats" style="text;html=1;strokeColor=none;fillColor=none;align=center;verticalAlign=middle;whiteSpace=wrap;rounded=0;fontSize=16;" vertex="1" parent="1">
          <mxGeometry x="516" y="446" width="144" height="30" as="geometry" />
        </mxCell>
        <mxCell id="0gp8LglunyOPUMX0nEBI-27" value="" style="verticalLabelPosition=bottom;shadow=0;dashed=0;align=center;html=1;verticalAlign=top;strokeWidth=1;shape=mxgraph.mockup.graphics.simpleIcon;strokeColor=#999999;" vertex="1" parent="1">
          <mxGeometry x="162" y="140" width="240" height="40" as="geometry" />
        </mxCell>
      </root>
    </mxGraphModel>
  </diagram>
</mxfile>
